<svg width="500" height="500" viewBox="0 0 500 500" fill="none" xmlns="http://www.w3.org/2000/svg">
<g clip-path="url(#clip0_4_21)">
<path d="M332.096 437.616V375.232H353.664C373.887 375.232 375.232 375.278 375.232 376.02C375.232 376.484 366.002 404.545 354.731 438.404C335.529 495.918 334.137 500 333.163 500H332.096V437.616ZM358.998 387.199C358.998 386.967 355.566 386.827 351.345 386.827H343.692L343.738 409.926L343.785 432.978L351.391 410.25C355.566 397.774 358.998 387.384 358.998 387.199Z" fill="#FFCA0E"/>
<path d="M95.5474 334.323C95.5474 333.72 101.484 315.492 108.674 293.831L121.846 254.406L164.564 254.267C188.08 254.221 207.328 254.314 207.328 254.499C207.328 254.731 201.299 272.913 193.97 294.991L180.566 335.111L138.08 335.25L95.5474 335.343V334.323Z" fill="#FFCA0E"/>
<path d="M220.779 334.323C220.779 333.72 226.716 315.492 233.905 293.831L247.078 254.406L289.796 254.267C313.312 254.221 332.56 254.314 332.56 254.499C332.56 254.731 326.531 272.913 319.202 294.991L305.798 335.111L263.312 335.25L220.779 335.343V334.323Z" fill="#FFCA0E"/>
<path d="M346.011 334.323C346.011 333.72 352.505 313.822 360.39 290.121C368.321 266.419 374.768 246.939 374.768 246.892C374.768 246.8 318.506 246.753 249.768 246.753C181.03 246.753 124.768 246.614 124.768 246.429C124.768 246.197 125.417 244.109 126.206 241.79L127.644 237.477H274.629C355.473 237.477 421.614 237.616 421.614 237.848C421.614 238.033 414.332 259.972 405.473 286.642L389.286 335.111L367.672 335.25L346.011 335.343V334.323Z" fill="#FFCA0E"/>
<path d="M129.963 230.427C130.102 230.102 130.659 228.432 131.215 226.716L132.282 223.562H279.267C360.111 223.562 426.252 223.748 426.252 223.933C426.252 224.119 425.742 225.742 425.186 227.551L424.072 230.751L276.902 230.891C159.276 230.983 129.824 230.891 129.963 230.427Z" fill="#FFCA0E"/>
<path d="M134.787 216.048C134.972 215.445 135.482 213.961 135.9 212.662L136.688 210.343L283.813 210.204L430.937 210.111L430.612 211.132C430.427 211.735 429.916 213.265 429.499 214.518L428.711 216.837L281.586 216.976L134.462 217.069L134.787 216.048Z" fill="#FFCA0E"/>
<path d="M0 166.883C0 165.863 3.98887 164.471 60.8998 145.501C94.3414 134.369 122.31 125.232 123.052 125.232C124.119 125.232 124.304 125.417 124.304 126.531C124.304 127.226 121.289 136.781 117.672 147.727L110.993 167.672L55.5195 167.811L0 167.904V166.883ZM104.36 149.536L106.586 142.95L87.4768 149.351C76.9944 152.829 68.0891 155.798 67.718 155.983C67.3469 156.122 74.9536 156.215 84.6011 156.169L102.18 156.076L104.36 149.536Z" fill="#FFCA0E"/>
<path d="M151.206 167.115C151.206 166.651 155.519 153.386 160.761 137.662L170.269 109.045L216.976 93.5065C242.672 84.9258 264.054 77.9221 264.518 77.9221C265.074 77.9221 265.306 78.2931 265.306 79.2208C265.306 79.9165 258.766 100.093 250.788 124.072L236.224 167.672L193.738 167.811C153.432 167.904 151.206 167.857 151.206 167.115ZM237.338 126.391C242.764 110.065 247.217 96.5677 247.217 96.3822C247.217 96.243 232.05 101.16 213.497 107.328L179.777 118.553L173.609 137.106C170.223 147.263 167.44 155.751 167.44 155.937C167.44 156.169 180.937 156.262 197.449 156.215L227.412 156.076L237.338 126.391Z" fill="#FFCA0E"/>
<path d="M276.438 167.115C276.438 165.863 310.807 62.9406 311.41 62.3376C312.059 61.6419 403.896 31.076 405.288 31.076C406.03 31.076 406.308 31.3543 406.308 32.1428C406.308 32.6994 396.197 63.4508 383.905 100.417L361.456 167.672L318.97 167.811C278.664 167.904 276.438 167.857 276.438 167.115ZM370.408 102.783C380.195 73.423 388.126 49.397 388.08 49.3043C387.987 49.2579 372.82 54.2208 354.314 60.3896L320.686 71.6141L306.679 113.59C298.98 136.735 292.672 155.798 292.672 155.983C292.672 156.169 306.169 156.262 322.681 156.215L352.644 156.076L370.408 102.783Z" fill="#FFCA0E"/>
<path d="M401.67 167.115C401.67 166.651 412.987 132.282 426.855 90.7236L452.041 15.1206L474.768 7.5603C487.245 3.3859 498.006 0 498.701 0C499.815 0 500 0.185529 500 1.2987C500 1.99443 487.616 39.7032 472.495 85.1113L444.944 167.672L423.33 167.811C402.922 167.904 401.67 167.857 401.67 167.115ZM459.184 86.9202L482.282 17.718L471.892 21.1967L461.549 24.6289L439.75 90.1206C427.737 126.16 417.904 155.751 417.904 155.983C417.904 156.169 422.032 156.262 427.041 156.215L436.132 156.076L459.184 86.9202Z" fill="#FFCA0E"/>
<path d="M346.011 334.323C346.011 333.72 352.505 313.822 360.39 290.121C368.321 266.419 374.768 246.939 374.768 246.892C374.768 246.8 318.506 246.753 249.768 246.753C181.03 246.753 124.768 246.614 124.768 246.429C124.768 246.197 125.417 244.109 126.206 241.79L127.644 237.477H274.629C355.473 237.477 421.614 237.616 421.614 237.848C421.614 238.033 414.332 259.972 405.473 286.642L389.286 335.111L367.672 335.25L346.011 335.343V334.323Z" fill="#2874F0"/>
<path d="M129.963 230.427C130.102 230.102 130.659 228.432 131.215 226.716L132.282 223.562H279.267C360.111 223.562 426.252 223.748 426.252 223.933C426.252 224.119 425.742 225.742 425.186 227.551L424.072 230.751L276.902 230.891C159.276 230.983 129.824 230.891 129.963 230.427Z" fill="#2874F0"/>
<path d="M134.787 216.048C134.972 215.445 135.482 213.961 135.9 212.662L136.688 210.343L283.813 210.204L430.937 210.111L430.612 211.132C430.427 211.735 429.916 213.265 429.499 214.518L428.711 216.837L281.586 216.976L134.462 217.069L134.787 216.048Z" fill="#2874F0"/>
</g>
<defs>
<clipPath id="clip0_4_21">
<rect width="500" height="500" fill="white"/>
</clipPath>
</defs>
</svg>
